<?xml version="1.0" encoding="UTF-8" standalone="no"?>
<svg
   xmlns:dc="http://purl.org/dc/elements/1.1/"
   xmlns:cc="http://creativecommons.org/ns#"
   xmlns:rdf="http://www.w3.org/1999/02/22-rdf-syntax-ns#"
   xmlns:svg="http://www.w3.org/2000/svg"
   xmlns="http://www.w3.org/2000/svg"
   xmlns:xlink="http://www.w3.org/1999/xlink"
   xmlns:sodipodi="http://sodipodi.sourceforge.net/DTD/sodipodi-0.dtd"
   xmlns:inkscape="http://www.inkscape.org/namespaces/inkscape"
   id="svg8"
   version="1.1"
   viewBox="0 0 210 297"
   height="297mm"
   width="210mm"
   inkscape:version="1.0 (4035a4fb49, 2020-05-01)"
   sodipodi:docname="membrane.svg"
   inkscape:export-filename="/home/jakub/Developer/jk/static/membrane.png"
   inkscape:export-xdpi="96"
   inkscape:export-ydpi="96">
  <defs
     id="defs2">
    <inkscape:path-effect
       only_selected="false"
       apply_with_weight="true"
       apply_no_weight="true"
       helper_size="0"
       steps="2"
       weight="33.333333"
       lpeversion="1"
       is_visible="true"
       id="path-effect366"
       effect="bspline" />
    <inkscape:path-effect
       effect="bspline"
       id="path-effect1343"
       is_visible="true"
       lpeversion="1"
       weight="33.333333"
       steps="2"
       helper_size="0"
       apply_no_weight="true"
       apply_with_weight="true"
       only_selected="false" />
    <inkscape:path-effect
       only_selected="false"
       apply_with_weight="true"
       apply_no_weight="true"
       helper_size="0"
       steps="2"
       weight="33.333333"
       lpeversion="1"
       is_visible="true"
       id="path-effect1308"
       effect="bspline" />
    <inkscape:path-effect
       effect="bspline"
       id="path-effect16"
       is_visible="true"
       lpeversion="1"
       weight="33.333333"
       steps="2"
       helper_size="0"
       apply_no_weight="true"
       apply_with_weight="true"
       only_selected="false" />
    <g
       id="g5656">
      <symbol
         overflow="visible"
         id="symbol2735">
        <path
           style="stroke:none;"
           d=""
           id="path4867" />
      </symbol>
      <symbol
         overflow="visible"
         id="symbol1541">
        <path
           style="stroke:none;"
           d="M 0.328125 1.71875 C 0.296875 1.84375 0.296875 1.859375 0.296875 1.890625 C 0.296875 2.03125 0.40625 2.15625 0.578125 2.15625 C 0.78125 2.15625 0.90625 1.96875 0.921875 1.9375 C 0.984375 1.859375 1.296875 0.515625 1.5625 -0.5625 C 1.765625 -0.15625 2.078125 0.109375 2.546875 0.109375 C 3.71875 0.109375 5 -1.296875 5 -2.78125 C 5 -3.84375 4.34375 -4.40625 3.625 -4.40625 C 2.65625 -4.40625 1.609375 -3.40625 1.3125 -2.1875 Z M 2.546875 -0.109375 C 1.84375 -0.109375 1.6875 -0.90625 1.6875 -1 C 1.6875 -1.03125 1.734375 -1.234375 1.765625 -1.359375 C 2.046875 -2.484375 2.140625 -2.84375 2.359375 -3.234375 C 2.796875 -3.96875 3.296875 -4.1875 3.59375 -4.1875 C 3.96875 -4.1875 4.28125 -3.890625 4.28125 -3.203125 C 4.28125 -2.65625 4 -1.546875 3.734375 -1.0625 C 3.40625 -0.421875 2.921875 -0.109375 2.546875 -0.109375 Z M 2.546875 -0.109375 "
           id="path5738" />
      </symbol>
    </g>
    <g
       id="g1343">
      <symbol
         overflow="visible"
         id="symbol6707">
        <path
           style="stroke:none;"
           d=""
           id="path8210" />
      </symbol>
      <symbol
         overflow="visible"
         id="symbol3301">
        <path
           style="stroke:none;"
           d="M 4.5 -4.296875 C 4.5 -4.34375 4.46875 -4.390625 4.40625 -4.390625 C 4.296875 -4.390625 3.890625 -4 3.734375 -3.703125 C 3.515625 -4.25 3.125 -4.40625 2.796875 -4.40625 C 1.625 -4.40625 0.40625 -2.9375 0.40625 -1.484375 C 0.40625 -0.515625 0.984375 0.109375 1.71875 0.109375 C 2.140625 0.109375 2.53125 -0.125 2.890625 -0.484375 C 2.796875 -0.140625 2.46875 1.203125 2.4375 1.296875 C 2.359375 1.578125 2.28125 1.609375 1.71875 1.625 C 1.59375 1.625 1.5 1.625 1.5 1.828125 C 1.5 1.828125 1.5 1.9375 1.625 1.9375 C 1.9375 1.9375 2.296875 1.90625 2.625 1.90625 C 2.953125 1.90625 3.3125 1.9375 3.65625 1.9375 C 3.703125 1.9375 3.828125 1.9375 3.828125 1.734375 C 3.828125 1.625 3.734375 1.625 3.5625 1.625 C 3.09375 1.625 3.09375 1.5625 3.09375 1.46875 C 3.09375 1.390625 3.109375 1.328125 3.125 1.25 Z M 1.75 -0.109375 C 1.140625 -0.109375 1.109375 -0.875 1.109375 -1.046875 C 1.109375 -1.53125 1.390625 -2.609375 1.5625 -3.03125 C 1.875 -3.765625 2.390625 -4.1875 2.796875 -4.1875 C 3.453125 -4.1875 3.59375 -3.375 3.59375 -3.3125 C 3.59375 -3.25 3.046875 -1.0625 3.015625 -1.03125 C 2.859375 -0.75 2.296875 -0.109375 1.75 -0.109375 Z M 1.75 -0.109375 "
           id="path683" />
      </symbol>
    </g>
    <g
       id="g6383">
      <symbol
         overflow="visible"
         id="symbol9438">
        <path
           style="stroke:none;"
           d=""
           id="path2362" />
      </symbol>
      <symbol
         overflow="visible"
         id="symbol7015">
        <path
           style="stroke:none;"
           d="M 2.578125 -6.8125 C 2.578125 -6.8125 2.578125 -6.921875 2.4375 -6.921875 C 2.21875 -6.921875 1.484375 -6.84375 1.21875 -6.8125 C 1.140625 -6.8125 1.03125 -6.796875 1.03125 -6.609375 C 1.03125 -6.5 1.140625 -6.5 1.28125 -6.5 C 1.765625 -6.5 1.78125 -6.40625 1.78125 -6.328125 L 1.75 -6.125 L 0.484375 -1.140625 C 0.453125 -1.03125 0.4375 -0.96875 0.4375 -0.8125 C 0.4375 -0.234375 0.875 0.109375 1.34375 0.109375 C 1.671875 0.109375 1.921875 -0.09375 2.09375 -0.453125 C 2.265625 -0.828125 2.390625 -1.40625 2.390625 -1.421875 C 2.390625 -1.53125 2.296875 -1.53125 2.265625 -1.53125 C 2.171875 -1.53125 2.15625 -1.484375 2.140625 -1.34375 C 1.96875 -0.703125 1.78125 -0.109375 1.375 -0.109375 C 1.078125 -0.109375 1.078125 -0.421875 1.078125 -0.5625 C 1.078125 -0.8125 1.09375 -0.859375 1.140625 -1.046875 Z M 2.578125 -6.8125 "
           id="path3149" />
      </symbol>
      <symbol
         overflow="visible"
         id="symbol136">
        <path
           style="stroke:none;"
           d="M 0.328125 1.71875 C 0.296875 1.84375 0.296875 1.859375 0.296875 1.890625 C 0.296875 2.03125 0.40625 2.15625 0.578125 2.15625 C 0.78125 2.15625 0.90625 1.96875 0.921875 1.9375 C 0.984375 1.859375 1.296875 0.515625 1.5625 -0.5625 C 1.765625 -0.15625 2.078125 0.109375 2.546875 0.109375 C 3.71875 0.109375 5 -1.296875 5 -2.78125 C 5 -3.84375 4.34375 -4.40625 3.625 -4.40625 C 2.65625 -4.40625 1.609375 -3.40625 1.3125 -2.1875 Z M 2.546875 -0.109375 C 1.84375 -0.109375 1.6875 -0.90625 1.6875 -1 C 1.6875 -1.03125 1.734375 -1.234375 1.765625 -1.359375 C 2.046875 -2.484375 2.140625 -2.84375 2.359375 -3.234375 C 2.796875 -3.96875 3.296875 -4.1875 3.59375 -4.1875 C 3.96875 -4.1875 4.28125 -3.890625 4.28125 -3.203125 C 4.28125 -2.65625 4 -1.546875 3.734375 -1.0625 C 3.40625 -0.421875 2.921875 -0.109375 2.546875 -0.109375 Z M 2.546875 -0.109375 "
           id="path6773" />
      </symbol>
      <symbol
         overflow="visible"
         id="symbol155">
        <path
           style="stroke:none;"
           d=""
           id="path3502" />
      </symbol>
      <symbol
         overflow="visible"
         id="symbol2606">
        <path
           style="stroke:none;"
           d="M 3.296875 2.390625 C 3.296875 2.359375 3.296875 2.34375 3.125 2.171875 C 1.890625 0.921875 1.5625 -0.96875 1.5625 -2.5 C 1.5625 -4.234375 1.9375 -5.96875 3.171875 -7.203125 C 3.296875 -7.328125 3.296875 -7.34375 3.296875 -7.375 C 3.296875 -7.453125 3.265625 -7.484375 3.203125 -7.484375 C 3.09375 -7.484375 2.203125 -6.796875 1.609375 -5.53125 C 1.109375 -4.4375 0.984375 -3.328125 0.984375 -2.5 C 0.984375 -1.71875 1.09375 -0.515625 1.640625 0.625 C 2.25 1.84375 3.09375 2.5 3.203125 2.5 C 3.265625 2.5 3.296875 2.46875 3.296875 2.390625 Z M 3.296875 2.390625 "
           id="path6029" />
      </symbol>
      <symbol
         overflow="visible"
         id="symbol4039">
        <path
           style="stroke:none;"
           d="M 2.875 -2.5 C 2.875 -3.265625 2.765625 -4.46875 2.21875 -5.609375 C 1.625 -6.828125 0.765625 -7.484375 0.671875 -7.484375 C 0.609375 -7.484375 0.5625 -7.4375 0.5625 -7.375 C 0.5625 -7.34375 0.5625 -7.328125 0.75 -7.140625 C 1.734375 -6.15625 2.296875 -4.578125 2.296875 -2.5 C 2.296875 -0.78125 1.9375 0.96875 0.703125 2.21875 C 0.5625 2.34375 0.5625 2.359375 0.5625 2.390625 C 0.5625 2.453125 0.609375 2.5 0.671875 2.5 C 0.765625 2.5 1.671875 1.8125 2.25 0.546875 C 2.765625 -0.546875 2.875 -1.65625 2.875 -2.5 Z M 2.875 -2.5 "
           id="path838" />
      </symbol>
    </g>
    <g
       id="g2035">
      <symbol
         overflow="visible"
         id="symbol1763">
        <path
           style="stroke:none;"
           d=""
           id="path8228" />
      </symbol>
      <symbol
         overflow="visible"
         id="symbol5858">
        <path
           style="stroke:none;"
           d="M 6.75 -1.609375 L 6.5 -1.609375 C 6.453125 -1.359375 6.40625 -1.125 6.3125 -0.890625 C 6.265625 -0.734375 6.234375 -0.640625 5.65625 -0.640625 L 4.859375 -0.640625 C 5 -1.203125 5.296875 -1.6875 5.75 -2.34375 C 6.21875 -3.046875 6.625 -3.734375 6.625 -4.53125 C 6.625 -5.90625 5.28125 -7.03125 3.59375 -7.03125 C 1.890625 -7.03125 0.5625 -5.890625 0.5625 -4.53125 C 0.5625 -3.734375 0.96875 -3.046875 1.4375 -2.34375 C 1.875 -1.6875 2.1875 -1.203125 2.328125 -0.640625 L 1.53125 -0.640625 C 0.953125 -0.640625 0.921875 -0.734375 0.875 -0.875 C 0.78125 -1.109375 0.734375 -1.359375 0.6875 -1.609375 L 0.4375 -1.609375 L 0.765625 0 L 2.359375 0 C 2.578125 0 2.609375 0 2.609375 -0.203125 C 2.609375 -0.90625 2.296875 -1.78125 2.078125 -2.421875 C 1.859375 -3 1.578125 -3.78125 1.578125 -4.53125 C 1.578125 -6.125 2.6875 -6.8125 3.59375 -6.8125 C 4.546875 -6.8125 5.609375 -6.09375 5.609375 -4.53125 C 5.609375 -3.78125 5.328125 -3.03125 5.046875 -2.21875 C 4.890625 -1.796875 4.578125 -0.890625 4.578125 -0.203125 C 4.578125 0 4.609375 0 4.828125 0 L 6.421875 0 Z M 6.75 -1.609375 "
           id="path4152" />
      </symbol>
    </g>
    <g
       id="g759">
      <symbol
         overflow="visible"
         id="symbol4092">
        <path
           style="stroke:none;"
           d=""
           id="path1274" />
      </symbol>
      <symbol
         overflow="visible"
         id="symbol2148">
        <path
           style="stroke:none;"
           d="M 5.515625 -6.78125 L 0.328125 -6.78125 L 0.328125 -6.46875 L 0.5625 -6.46875 C 1.328125 -6.46875 1.359375 -6.359375 1.359375 -6 L 1.359375 -0.78125 C 1.359375 -0.421875 1.328125 -0.3125 0.5625 -0.3125 L 0.328125 -0.3125 L 0.328125 0 C 0.671875 -0.03125 1.453125 -0.03125 1.84375 -0.03125 C 2.25 -0.03125 3.15625 -0.03125 3.515625 0 L 3.515625 -0.3125 L 3.1875 -0.3125 C 2.25 -0.3125 2.25 -0.4375 2.25 -0.78125 L 2.25 -6.078125 C 2.25 -6.40625 2.265625 -6.46875 2.734375 -6.46875 L 3.765625 -6.46875 C 5.1875 -6.46875 5.390625 -5.875 5.546875 -4.53125 L 5.796875 -4.53125 Z M 5.515625 -6.78125 "
           id="path992" />
      </symbol>
    </g>
    <g
       id="g4174">
      <symbol
         overflow="visible"
         id="symbol6689">
        <path
           style="stroke:none;"
           d=""
           id="path5799" />
      </symbol>
      <symbol
         overflow="visible"
         id="symbol1528">
        <path
           style="stroke:none;"
           d="M 5.515625 -6.78125 L 0.328125 -6.78125 L 0.328125 -6.46875 L 0.5625 -6.46875 C 1.328125 -6.46875 1.359375 -6.359375 1.359375 -6 L 1.359375 -0.78125 C 1.359375 -0.421875 1.328125 -0.3125 0.5625 -0.3125 L 0.328125 -0.3125 L 0.328125 0 C 0.671875 -0.03125 1.453125 -0.03125 1.84375 -0.03125 C 2.25 -0.03125 3.15625 -0.03125 3.515625 0 L 3.515625 -0.3125 L 3.1875 -0.3125 C 2.25 -0.3125 2.25 -0.4375 2.25 -0.78125 L 2.25 -6.078125 C 2.25 -6.40625 2.265625 -6.46875 2.734375 -6.46875 L 3.765625 -6.46875 C 5.1875 -6.46875 5.390625 -5.875 5.546875 -4.53125 L 5.796875 -4.53125 Z M 5.515625 -6.78125 "
           id="path3691" />
      </symbol>
      <symbol
         overflow="visible"
         id="symbol389">
        <path
           style="stroke:none;"
           d="M 3.296875 2.390625 C 3.296875 2.359375 3.296875 2.34375 3.125 2.171875 C 1.890625 0.921875 1.5625 -0.96875 1.5625 -2.5 C 1.5625 -4.234375 1.9375 -5.96875 3.171875 -7.203125 C 3.296875 -7.328125 3.296875 -7.34375 3.296875 -7.375 C 3.296875 -7.453125 3.265625 -7.484375 3.203125 -7.484375 C 3.09375 -7.484375 2.203125 -6.796875 1.609375 -5.53125 C 1.109375 -4.4375 0.984375 -3.328125 0.984375 -2.5 C 0.984375 -1.71875 1.09375 -0.515625 1.640625 0.625 C 2.25 1.84375 3.09375 2.5 3.203125 2.5 C 3.265625 2.5 3.296875 2.46875 3.296875 2.390625 Z M 3.296875 2.390625 "
           id="path5404" />
      </symbol>
      <symbol
         overflow="visible"
         id="symbol9340">
        <path
           style="stroke:none;"
           d="M 2.875 -2.5 C 2.875 -3.265625 2.765625 -4.46875 2.21875 -5.609375 C 1.625 -6.828125 0.765625 -7.484375 0.671875 -7.484375 C 0.609375 -7.484375 0.5625 -7.4375 0.5625 -7.375 C 0.5625 -7.34375 0.5625 -7.328125 0.75 -7.140625 C 1.734375 -6.15625 2.296875 -4.578125 2.296875 -2.5 C 2.296875 -0.78125 1.9375 0.96875 0.703125 2.21875 C 0.5625 2.34375 0.5625 2.359375 0.5625 2.390625 C 0.5625 2.453125 0.609375 2.5 0.671875 2.5 C 0.765625 2.5 1.671875 1.8125 2.25 0.546875 C 2.765625 -0.546875 2.875 -1.65625 2.875 -2.5 Z M 2.875 -2.5 "
           id="path8608" />
      </symbol>
      <symbol
         overflow="visible"
         id="symbol4206">
        <path
           style="stroke:none;"
           d=""
           id="path9718" />
      </symbol>
      <symbol
         overflow="visible"
         id="symbol9309">
        <path
           style="stroke:none;"
           d="M 2.625 -4.359375 C 1.390625 -4.0625 0.421875 -2.765625 0.421875 -1.5625 C 0.421875 -0.59375 1.0625 0.125 2 0.125 C 3.15625 0.125 3.984375 -1.453125 3.984375 -2.828125 C 3.984375 -3.734375 3.59375 -4.234375 3.25 -4.671875 C 2.890625 -5.125 2.296875 -5.875 2.296875 -6.3125 C 2.296875 -6.53125 2.5 -6.765625 2.84375 -6.765625 C 3.15625 -6.765625 3.34375 -6.640625 3.5625 -6.5 C 3.765625 -6.375 3.953125 -6.25 4.109375 -6.25 C 4.359375 -6.25 4.5 -6.484375 4.5 -6.65625 C 4.5 -6.875 4.34375 -6.890625 3.984375 -6.984375 C 3.46875 -7.09375 3.328125 -7.09375 3.171875 -7.09375 C 2.390625 -7.09375 2.03125 -6.65625 2.03125 -6.0625 C 2.03125 -5.515625 2.328125 -4.96875 2.625 -4.359375 Z M 2.75 -4.140625 C 3 -3.671875 3.296875 -3.140625 3.296875 -2.421875 C 3.296875 -1.765625 2.921875 -0.09375 2 -0.09375 C 1.453125 -0.09375 1.03125 -0.515625 1.03125 -1.28125 C 1.03125 -1.90625 1.40625 -3.78125 2.75 -4.140625 Z M 2.75 -4.140625 "
           id="path981" />
      </symbol>
    </g>
    <g
       id="g8033">
      <symbol
         overflow="visible"
         id="symbol2552">
        <path
           style="stroke:none;"
           d=""
           id="path1917" />
      </symbol>
      <symbol
         overflow="visible"
         id="symbol1735">
        <path
           style="stroke:none;"
           d="M 5.515625 -6.78125 L 0.328125 -6.78125 L 0.328125 -6.46875 L 0.5625 -6.46875 C 1.328125 -6.46875 1.359375 -6.359375 1.359375 -6 L 1.359375 -0.78125 C 1.359375 -0.421875 1.328125 -0.3125 0.5625 -0.3125 L 0.328125 -0.3125 L 0.328125 0 C 0.671875 -0.03125 1.453125 -0.03125 1.84375 -0.03125 C 2.25 -0.03125 3.15625 -0.03125 3.515625 0 L 3.515625 -0.3125 L 3.1875 -0.3125 C 2.25 -0.3125 2.25 -0.4375 2.25 -0.78125 L 2.25 -6.078125 C 2.25 -6.40625 2.265625 -6.46875 2.734375 -6.46875 L 3.765625 -6.46875 C 5.1875 -6.46875 5.390625 -5.875 5.546875 -4.53125 L 5.796875 -4.53125 Z M 5.515625 -6.78125 "
           id="path3853" />
      </symbol>
      <symbol
         overflow="visible"
         id="symbol8916">
        <path
           style="stroke:none;"
           d="M 3.296875 2.390625 C 3.296875 2.359375 3.296875 2.34375 3.125 2.171875 C 1.890625 0.921875 1.5625 -0.96875 1.5625 -2.5 C 1.5625 -4.234375 1.9375 -5.96875 3.171875 -7.203125 C 3.296875 -7.328125 3.296875 -7.34375 3.296875 -7.375 C 3.296875 -7.453125 3.265625 -7.484375 3.203125 -7.484375 C 3.09375 -7.484375 2.203125 -6.796875 1.609375 -5.53125 C 1.109375 -4.4375 0.984375 -3.328125 0.984375 -2.5 C 0.984375 -1.71875 1.09375 -0.515625 1.640625 0.625 C 2.25 1.84375 3.09375 2.5 3.203125 2.5 C 3.265625 2.5 3.296875 2.46875 3.296875 2.390625 Z M 3.296875 2.390625 "
           id="path8996" />
      </symbol>
      <symbol
         overflow="visible"
         id="symbol8197">
        <path
           style="stroke:none;"
           d="M 2.875 -2.5 C 2.875 -3.265625 2.765625 -4.46875 2.21875 -5.609375 C 1.625 -6.828125 0.765625 -7.484375 0.671875 -7.484375 C 0.609375 -7.484375 0.5625 -7.4375 0.5625 -7.375 C 0.5625 -7.34375 0.5625 -7.328125 0.75 -7.140625 C 1.734375 -6.15625 2.296875 -4.578125 2.296875 -2.5 C 2.296875 -0.78125 1.9375 0.96875 0.703125 2.21875 C 0.5625 2.34375 0.5625 2.359375 0.5625 2.390625 C 0.5625 2.453125 0.609375 2.5 0.671875 2.5 C 0.765625 2.5 1.671875 1.8125 2.25 0.546875 C 2.765625 -0.546875 2.875 -1.65625 2.875 -2.5 Z M 2.875 -2.5 "
           id="path542" />
      </symbol>
      <symbol
         overflow="visible"
         id="symbol8159">
        <path
           style="stroke:none;"
           d=""
           id="path8142" />
      </symbol>
      <symbol
         overflow="visible"
         id="symbol1210">
        <path
           style="stroke:none;"
           d="M 2.625 -4.359375 C 1.390625 -4.0625 0.421875 -2.765625 0.421875 -1.5625 C 0.421875 -0.59375 1.0625 0.125 2 0.125 C 3.15625 0.125 3.984375 -1.453125 3.984375 -2.828125 C 3.984375 -3.734375 3.59375 -4.234375 3.25 -4.671875 C 2.890625 -5.125 2.296875 -5.875 2.296875 -6.3125 C 2.296875 -6.53125 2.5 -6.765625 2.84375 -6.765625 C 3.15625 -6.765625 3.34375 -6.640625 3.5625 -6.5 C 3.765625 -6.375 3.953125 -6.25 4.109375 -6.25 C 4.359375 -6.25 4.5 -6.484375 4.5 -6.65625 C 4.5 -6.875 4.34375 -6.890625 3.984375 -6.984375 C 3.46875 -7.09375 3.328125 -7.09375 3.171875 -7.09375 C 2.390625 -7.09375 2.03125 -6.65625 2.03125 -6.0625 C 2.03125 -5.515625 2.328125 -4.96875 2.625 -4.359375 Z M 2.75 -4.140625 C 3 -3.671875 3.296875 -3.140625 3.296875 -2.421875 C 3.296875 -1.765625 2.921875 -0.09375 2 -0.09375 C 1.453125 -0.09375 1.03125 -0.515625 1.03125 -1.28125 C 1.03125 -1.90625 1.40625 -3.78125 2.75 -4.140625 Z M 2.75 -4.140625 "
           id="path7200" />
      </symbol>
      <symbol
         overflow="visible"
         id="symbol8657">
        <path
           style="stroke:none;"
           d=""
           id="path2299" />
      </symbol>
      <symbol
         overflow="visible"
         id="symbol2336">
        <path
           style="stroke:none;"
           d="M 3.59375 -2.21875 C 3.59375 -2.984375 3.5 -3.546875 3.1875 -4.03125 C 2.96875 -4.34375 2.53125 -4.625 1.984375 -4.625 C 0.359375 -4.625 0.359375 -2.71875 0.359375 -2.21875 C 0.359375 -1.71875 0.359375 0.140625 1.984375 0.140625 C 3.59375 0.140625 3.59375 -1.71875 3.59375 -2.21875 Z M 1.984375 -0.0625 C 1.65625 -0.0625 1.234375 -0.25 1.09375 -0.8125 C 1 -1.21875 1 -1.796875 1 -2.3125 C 1 -2.828125 1 -3.359375 1.09375 -3.734375 C 1.25 -4.28125 1.6875 -4.4375 1.984375 -4.4375 C 2.359375 -4.4375 2.71875 -4.203125 2.84375 -3.796875 C 2.953125 -3.421875 2.96875 -2.921875 2.96875 -2.3125 C 2.96875 -1.796875 2.96875 -1.28125 2.875 -0.84375 C 2.734375 -0.203125 2.265625 -0.0625 1.984375 -0.0625 Z M 1.984375 -0.0625 "
           id="path6827" />
      </symbol>
    </g>
    <g
       id="g7765">
      <symbol
         overflow="visible"
         id="symbol4502">
        <path
           style="stroke:none;"
           d=""
           id="path3223" />
      </symbol>
      <symbol
         overflow="visible"
         id="symbol2532">
        <path
           style="stroke:none;"
           d="M 2.625 -4.359375 C 1.390625 -4.0625 0.421875 -2.765625 0.421875 -1.5625 C 0.421875 -0.59375 1.0625 0.125 2 0.125 C 3.15625 0.125 3.984375 -1.453125 3.984375 -2.828125 C 3.984375 -3.734375 3.59375 -4.234375 3.25 -4.671875 C 2.890625 -5.125 2.296875 -5.875 2.296875 -6.3125 C 2.296875 -6.53125 2.5 -6.765625 2.84375 -6.765625 C 3.15625 -6.765625 3.34375 -6.640625 3.5625 -6.5 C 3.765625 -6.375 3.953125 -6.25 4.109375 -6.25 C 4.359375 -6.25 4.5 -6.484375 4.5 -6.65625 C 4.5 -6.875 4.34375 -6.890625 3.984375 -6.984375 C 3.46875 -7.09375 3.328125 -7.09375 3.171875 -7.09375 C 2.390625 -7.09375 2.03125 -6.65625 2.03125 -6.0625 C 2.03125 -5.515625 2.328125 -4.96875 2.625 -4.359375 Z M 2.75 -4.140625 C 3 -3.671875 3.296875 -3.140625 3.296875 -2.421875 C 3.296875 -1.765625 2.921875 -0.09375 2 -0.09375 C 1.453125 -0.09375 1.03125 -0.515625 1.03125 -1.28125 C 1.03125 -1.90625 1.40625 -3.78125 2.75 -4.140625 Z M 2.75 -4.140625 "
           id="path8045" />
      </symbol>
    </g>
    <g
       id="g9733">
      <symbol
         overflow="visible"
         id="symbol3494">
        <path
           style="stroke:none;"
           d=""
           id="path3276" />
      </symbol>
      <symbol
         overflow="visible"
         id="symbol6">
        <path
           style="stroke:none;"
           d="M 2.625 -4.359375 C 1.390625 -4.0625 0.421875 -2.765625 0.421875 -1.5625 C 0.421875 -0.59375 1.0625 0.125 2 0.125 C 3.15625 0.125 3.984375 -1.453125 3.984375 -2.828125 C 3.984375 -3.734375 3.59375 -4.234375 3.25 -4.671875 C 2.890625 -5.125 2.296875 -5.875 2.296875 -6.3125 C 2.296875 -6.53125 2.5 -6.765625 2.84375 -6.765625 C 3.15625 -6.765625 3.34375 -6.640625 3.5625 -6.5 C 3.765625 -6.375 3.953125 -6.25 4.109375 -6.25 C 4.359375 -6.25 4.5 -6.484375 4.5 -6.65625 C 4.5 -6.875 4.34375 -6.890625 3.984375 -6.984375 C 3.46875 -7.09375 3.328125 -7.09375 3.171875 -7.09375 C 2.390625 -7.09375 2.03125 -6.65625 2.03125 -6.0625 C 2.03125 -5.515625 2.328125 -4.96875 2.625 -4.359375 Z M 2.75 -4.140625 C 3 -3.671875 3.296875 -3.140625 3.296875 -2.421875 C 3.296875 -1.765625 2.921875 -0.09375 2 -0.09375 C 1.453125 -0.09375 1.03125 -0.515625 1.03125 -1.28125 C 1.03125 -1.90625 1.40625 -3.78125 2.75 -4.140625 Z M 2.75 -4.140625 "
           id="path3842" />
      </symbol>
      <symbol
         overflow="visible"
         id="symbol1232">
        <path
           style="stroke:none;"
           d=""
           id="path4394" />
      </symbol>
      <symbol
         overflow="visible"
         id="symbol4584">
        <path
           style="stroke:none;"
           d="M 3.59375 -2.21875 C 3.59375 -2.984375 3.5 -3.546875 3.1875 -4.03125 C 2.96875 -4.34375 2.53125 -4.625 1.984375 -4.625 C 0.359375 -4.625 0.359375 -2.71875 0.359375 -2.21875 C 0.359375 -1.71875 0.359375 0.140625 1.984375 0.140625 C 3.59375 0.140625 3.59375 -1.71875 3.59375 -2.21875 Z M 1.984375 -0.0625 C 1.65625 -0.0625 1.234375 -0.25 1.09375 -0.8125 C 1 -1.21875 1 -1.796875 1 -2.3125 C 1 -2.828125 1 -3.359375 1.09375 -3.734375 C 1.25 -4.28125 1.6875 -4.4375 1.984375 -4.4375 C 2.359375 -4.4375 2.71875 -4.203125 2.84375 -3.796875 C 2.953125 -3.421875 2.96875 -2.921875 2.96875 -2.3125 C 2.96875 -1.796875 2.96875 -1.28125 2.875 -0.84375 C 2.734375 -0.203125 2.265625 -0.0625 1.984375 -0.0625 Z M 1.984375 -0.0625 "
           id="path8212" />
      </symbol>
    </g>
  </defs>
  <sodipodi:namedview
     id="base"
     pagecolor="#ffffff"
     bordercolor="#666666"
     borderopacity="1.0"
     inkscape:pageopacity="0.0"
     inkscape:pageshadow="2"
     inkscape:zoom="1.7538776"
     inkscape:cx="437.7753"
     inkscape:cy="487.76483"
     inkscape:document-units="mm"
     inkscape:current-layer="layer1"
     inkscape:document-rotation="0"
     showgrid="false"
     inkscape:window-width="1436"
     inkscape:window-height="873"
     inkscape:window-x="0"
     inkscape:window-y="23"
     inkscape:window-maximized="0" />
  <metadata
     id="metadata5">
    <rdf:RDF>
      <cc:Work
         rdf:about="">
        <dc:format>image/svg+xml</dc:format>
        <dc:type
           rdf:resource="http://purl.org/dc/dcmitype/StillImage" />
        <dc:title />
      </cc:Work>
    </rdf:RDF>
  </metadata>
  <g
     inkscape:label="Warstwa 1"
     inkscape:groupmode="layer"
     id="layer1">
    <path
       style="fill:#d6c6ed;stroke:#000000;stroke-width:0.345805;stroke-miterlimit:3.9;stroke-dasharray:none"
       d="M 4.3340536,137.76252 C 1.8306362,129.38869 -0.13016028,117.62845 5.7351705,108.96354 11.600501,100.29862 25.291351,94.729506 39.787767,95.137896 c 14.496416,0.40839 29.797384,6.794014 35.650068,16.753294 5.852685,9.95927 2.257177,23.4915 -9.73576,31.45701 -11.992936,7.96551 -32.382616,10.36408 -44.100672,9.06975 C 9.8833476,151.12363 6.8374711,146.13634 4.3340536,137.76252 Z"
       id="path14"
       inkscape:path-effect="#path-effect16"
       inkscape:original-d="M 3.7913984,141.14873 C 1.8307856,129.38867 -0.13001179,117.62843 -2.0909925,105.868 11.60059,100.29884 25.291441,94.729726 38.982384,89.160315 c 15.301762,6.386061 30.602729,12.771685 45.90382,19.157255 -3.595471,13.53295 -7.190977,27.06518 -10.786739,40.5975 -20.390303,2.39884 -40.779982,4.79741 -61.170248,7.19584 -3.0458178,-4.98731 -6.0916947,-9.9746 -9.1378186,-14.96218 z" />
    <circle
       id="path841"
       style="fill:#000000;stroke:none;stroke-width:0.561923"
       cx="46.954201"
       cy="108.36534"
       r="1.5928545" />
    <circle
       r="1.5928545"
       cy="96.676704"
       cx="50.736458"
       style="fill:#000000;stroke:none;stroke-width:0.561923"
       id="circle843" />
    <path
       style="fill:#d6c6ed;stroke:#000000;stroke-width:0.345805;stroke-miterlimit:3.9;stroke-dasharray:none"
       d="M 50.608303,96.556448 87.978272,106.5697 10.216708,85.733554"
       id="path845" />
    <path
       style="fill:#d6c6ed;stroke:#000000;stroke-width:0.345805;stroke-miterlimit:3.9;stroke-dasharray:none"
       d="M 50.608303,96.556447 46.912424,108.44583"
       id="path847" />
    <g
       id="g866"
       transform="matrix(0.691611,0,0,0.691611,-16.551218,59.220018)"
       inkscape:label="">
      <g
         id="g9431">
        <g
           style="fill:#000000;fill-opacity:1"
           id="g7658">
          <use
             xlink:href="#symbol1541"
             x="91.925003"
             y="81.962997"
             id="use5918"
             width="100%"
             height="100%" />
        </g>
      </g>
    </g>
    <g
       id="g905"
       transform="matrix(0.691611,0,0,0.691611,-11.255573,36.715297)"
       inkscape:label="">
      <g
         id="g2056">
        <g
           style="fill:#000000;fill-opacity:1"
           id="g8993">
          <use
             xlink:href="#symbol3301"
             x="91.925003"
             y="81.962997"
             id="use7582"
             width="100%"
             height="100%" />
        </g>
      </g>
    </g>
    <g
       id="g967"
       transform="matrix(0.691611,0,0,0.691611,12.848417,43.534886)"
       inkscape:label="">
      <g
         id="g6895">
        <g
           style="fill:#000000;fill-opacity:1"
           id="g6313">
          <use
             xlink:href="#symbol7015"
             x="91.925003"
             y="81.962997"
             id="use56"
             width="100%"
             height="100%" />
        </g>
        <g
           style="fill:#000000;fill-opacity:1"
           id="g5653">
          <use
             xlink:href="#symbol2606"
             x="95.094002"
             y="81.962997"
             id="use6531"
             width="100%"
             height="100%" />
        </g>
        <g
           style="fill:#000000;fill-opacity:1"
           id="g4799">
          <use
             xlink:href="#symbol136"
             x="98.968002"
             y="81.962997"
             id="use2770"
             width="100%"
             height="100%" />
        </g>
        <g
           style="fill:#000000;fill-opacity:1"
           id="g3703">
          <use
             xlink:href="#symbol4039"
             x="104.119"
             y="81.962997"
             id="use8953"
             width="100%"
             height="100%" />
        </g>
      </g>
    </g>
    <g
       id="g1052"
       transform="matrix(0.691611,0,0,0.691611,-55.409282,74.710862)"
       inkscape:label="">
      <g
         id="g650">
        <g
           style="fill:#000000;fill-opacity:1"
           id="g2287">
          <use
             xlink:href="#symbol5858"
             x="91.925003"
             y="81.962997"
             id="use8093"
             width="100%"
             height="100%" />
        </g>
      </g>
    </g>
    <g
       id="g1132"
       transform="matrix(0.691611,0,0,0.691611,9.9897731,85.733554)"
       inkscape:label="">
      <g
         id="g6338">
        <g
           style="fill:#000000;fill-opacity:1"
           id="g3658">
          <use
             xlink:href="#symbol2148"
             x="91.925003"
             y="81.962997"
             id="use7484"
             width="100%"
             height="100%" />
        </g>
      </g>
    </g>
    <path
       inkscape:original-d="m 117.01677,141.14873 c -1.96061,-11.76006 -3.92141,-23.5203 -5.88239,-35.28073 13.69158,-5.56916 27.38243,-11.138274 41.07337,-16.707685 15.30177,6.386061 30.60273,12.771685 45.90382,19.157255 -3.59547,13.53295 -7.19097,27.06518 -10.78673,40.5975 -20.39031,2.39884 -40.77999,4.79741 -61.17025,7.19584 -3.04582,-4.98731 -6.0917,-9.9746 -9.13782,-14.96218 z"
       inkscape:path-effect="#path-effect1308"
       id="path1244"
       d="m 117.55943,137.76252 c -2.50342,-8.37382 -4.46422,-20.13407 1.40111,-28.79898 5.86533,-8.66492 19.55618,-14.234035 34.0526,-13.825643 14.49642,0.408392 29.79738,6.794013 35.65006,16.753293 5.85269,9.95927 2.25718,23.4915 -9.73575,31.45701 -11.99294,7.96551 -32.38262,10.36408 -44.10068,9.06975 -11.71805,-1.29432 -14.76393,-6.28161 -17.26734,-14.65543 z"
       style="fill:#d6c6ed;stroke:#000000;stroke-width:0.345805;stroke-miterlimit:3.9;stroke-dasharray:none" />
    <g
       inkscape:label=""
       transform="matrix(0.691611,0,0,0.691611,96.674152,59.220018)"
       id="g1260">
      <g
         id="g1258">
        <g
           id="g1256"
           style="fill:#000000;fill-opacity:1">
          <use
             height="100%"
             width="100%"
             id="use1254"
             y="81.962997"
             x="91.925003"
             xlink:href="#symbol1541" />
        </g>
      </g>
    </g>
    <g
       inkscape:label=""
       transform="matrix(0.691611,0,0,0.691611,54.700264,75.056669)"
       id="g1296">
      <g
         id="g1294">
        <g
           id="g1292"
           style="fill:#000000;fill-opacity:1">
          <use
             height="100%"
             width="100%"
             id="use1290"
             y="81.962997"
             x="91.925003"
             xlink:href="#symbol5858" />
        </g>
      </g>
    </g>
    <path
       style="fill:#c9acf0;stroke:#000000;stroke-width:0.197019;stroke-miterlimit:3.9;stroke-dasharray:none;fill-opacity:1"
       d="m 132.92176,131.81246 c -1.4263,-4.77091 -2.54344,-11.4712 0.79827,-16.40795 3.34172,-4.93675 11.14195,-8.1097 19.40115,-7.87703 8.2592,0.23268 16.97677,3.87082 20.31129,9.54503 3.33451,5.67421 1.28601,13.38407 -5.54686,17.92234 -6.83286,4.53827 -18.44969,5.90483 -25.12594,5.16741 -6.67625,-0.73743 -8.41161,-3.5789 -9.83791,-8.3498 z"
       id="path1341"
       inkscape:path-effect="#path-effect1343"
       inkscape:original-d="m 132.61259,133.74172 c -1.11704,-6.70018 -2.23419,-13.40047 -3.35144,-20.10086 7.80065,-3.17298 15.60088,-6.34593 23.40117,-9.51905 8.71804,3.6384 17.43561,7.27655 26.15327,10.91466 -2.04849,7.71028 -4.09699,15.42014 -6.14564,23.13005 -11.61719,1.36672 -23.23402,2.73328 -34.85118,4.09976 -1.73532,-2.84147 -3.47069,-5.68293 -5.20618,-8.52456 z" />
    <path
       id="path1252"
       d="m 163.83367,96.556447 -3.69588,11.889383"
       style="fill:#d6c6ed;stroke:#000000;stroke-width:0.345805;stroke-miterlimit:3.9;stroke-dasharray:none" />
    <path
       style="fill:#ffb380;stroke:#000000;stroke-width:0.345805;stroke-miterlimit:3.9;stroke-dasharray:none"
       d="m 166.63848,135.69245 6.51604,10.60935"
       id="path1345" />
    <g
       id="g1451"
       transform="matrix(0.43727465,0,0,0.43727465,90.31123,106.93473)"
       inkscape:label="">
      <g
         id="g5148">
        <g
           style="fill:#000000;fill-opacity:1"
           id="g9207">
          <use
             xlink:href="#symbol1528"
             x="91.925003"
             y="81.962997"
             id="use3694"
             width="100%"
             height="100%" />
          <use
             xlink:href="#symbol389"
             x="98.151627"
             y="81.962997"
             id="use7263"
             width="100%"
             height="100%" />
        </g>
        <g
           style="fill:#000000;fill-opacity:1"
           id="g1128">
          <use
             xlink:href="#symbol9309"
             x="102.026"
             y="81.962997"
             id="use3821"
             width="100%"
             height="100%" />
        </g>
        <g
           style="fill:#000000;fill-opacity:1"
           id="g4325">
          <use
             xlink:href="#symbol9340"
             x="106.831"
             y="81.962997"
             id="use6658"
             width="100%"
             height="100%" />
        </g>
      </g>
    </g>
    <g
       id="g1609"
       transform="matrix(0.44857457,0,0,0.44857457,96.37728,100.75572)"
       inkscape:label="">
      <g
         id="g8792">
        <g
           style="fill:#000000;fill-opacity:1"
           id="g3091">
          <use
             xlink:href="#symbol1735"
             x="91.925003"
             y="81.962997"
             id="use4986"
             width="100%"
             height="100%" />
          <use
             xlink:href="#symbol8916"
             x="98.151627"
             y="81.962997"
             id="use3015"
             width="100%"
             height="100%" />
        </g>
        <g
           style="fill:#000000;fill-opacity:1"
           id="g990">
          <use
             xlink:href="#symbol1210"
             x="102.026"
             y="81.962997"
             id="use828"
             width="100%"
             height="100%" />
        </g>
        <g
           style="fill:#000000;fill-opacity:1"
           id="g9228">
          <use
             xlink:href="#symbol2336"
             x="106.454"
             y="83.457001"
             id="use9290"
             width="100%"
             height="100%" />
        </g>
        <g
           style="fill:#000000;fill-opacity:1"
           id="g1712">
          <use
             xlink:href="#symbol8197"
             x="110.923"
             y="81.962997"
             id="use1638"
             width="100%"
             height="100%" />
        </g>
      </g>
    </g>
    <g
       id="g1782"
       transform="matrix(0.64206613,0,0,0.64206613,102.03383,55.734083)"
       inkscape:label="">
      <g
         id="g1217">
        <g
           style="fill:#000000;fill-opacity:1"
           id="g8329">
          <use
             xlink:href="#symbol2532"
             x="91.925003"
             y="81.962997"
             id="use1874"
             width="100%"
             height="100%" />
        </g>
      </g>
    </g>
    <g
       id="g1952"
       transform="matrix(0.64206613,0,0,0.64206613,105.58732,92.576689)"
       inkscape:label="">
      <g
         id="g1950">
        <g
           style="fill:#000000;fill-opacity:1"
           id="g43">
          <use
             xlink:href="#symbol6"
             x="91.925003"
             y="81.962997"
             id="use3065"
             width="100%"
             height="100%" />
        </g>
        <g
           style="fill:#000000;fill-opacity:1"
           id="g6113">
          <use
             xlink:href="#symbol4584"
             x="96.352997"
             y="83.457001"
             id="use4230"
             width="100%"
             height="100%" />
        </g>
      </g>
    </g>
    <path
       style="fill:#ffb380;fill-opacity:1;stroke:#000000;stroke-width:0.499999;stroke-miterlimit:3.9;stroke-dasharray:none"
       d="m 160.05398,102.25926 3.75108,1.0051"
       id="path1971" />
    <path
       inkscape:original-d="m 125.12051,137.29998 c -1.52228,-9.1309 -3.04472,-18.26194 -4.56729,-27.39312 10.6306,-4.32409 21.26063,-8.64813 31.89073,-12.972408 11.8808,4.958348 23.76096,9.916358 35.64125,14.874318 -2.79165,10.50744 -5.58331,21.01431 -8.37518,31.52125 -15.83172,1.86254 -31.66294,3.72487 -47.49461,5.58709 -2.36487,-3.87231 -4.7298,-7.74461 -7.0949,-11.61713 z"
       inkscape:path-effect="#path-effect366"
       id="path364"
       d="m 125.54184,134.67081 c -1.94373,-6.50171 -3.46616,-15.63275 1.08787,-22.36048 4.55404,-6.72772 15.18407,-11.05177 26.43957,-10.73469 11.2555,0.31709 23.13566,5.27509 27.67989,13.00781 4.54422,7.73272 1.75255,18.23958 -7.55917,24.42427 -9.31172,6.18469 -25.14294,8.04701 -34.24122,7.04206 -9.09828,-1.00496 -11.4632,-4.87726 -13.40694,-11.37897 z"
       style="fill:none;fill-opacity:1;stroke:#000000;stroke-width:0.268494;stroke-miterlimit:3.9;stroke-dasharray:none" />
    <g
       inkscape:label=""
       transform="matrix(0.691611,0,0,0.691611,50.558046,92.752705)"
       id="g1228">
      <g
         id="g1226">
        <g
           id="g1224"
           style="fill:#000000;fill-opacity:1">
          <use
             height="100%"
             width="100%"
             id="use1222"
             y="81.962997"
             x="91.925003"
             xlink:href="#symbol2148" />
        </g>
      </g>
    </g>
  </g>
</svg>
